<mxfile host="app.diagrams.net" modified="2024-02-20T16:16:57.743Z" agent="Mozilla/5.0 (Macintosh; Intel Mac OS X 10_15_7) AppleWebKit/537.36 (KHTML, like Gecko) Chrome/121.0.0.0 Safari/537.36" etag="8ABBVIWaIWE5Vcgxw6-r" version="23.1.5" type="github">
  <diagram name="第 1 页" id="id2NgSiAHU65vHq9hr1i">
    <mxGraphModel dx="954" dy="581" grid="1" gridSize="10" guides="1" tooltips="1" connect="1" arrows="1" fold="1" page="1" pageScale="1" pageWidth="827" pageHeight="1169" math="0" shadow="0">
      <root>
        <mxCell id="0" />
        <mxCell id="1" parent="0" />
        <mxCell id="y9sA7hNgCmnhZNfGoA-k-1" value="" style="rounded=0;whiteSpace=wrap;html=1;" vertex="1" parent="1">
          <mxGeometry x="40" y="80" width="1320" height="440" as="geometry" />
        </mxCell>
        <mxCell id="y9sA7hNgCmnhZNfGoA-k-2" value="&lt;font style=&quot;font-size: 13px;&quot;&gt;&lt;font color=&quot;#3333ff&quot;&gt;领域模型&lt;/font&gt;&lt;br&gt;&lt;br&gt;接口管理&lt;br&gt;&lt;br&gt;角色管理&lt;br&gt;&lt;br&gt;用户管理&lt;br&gt;&lt;br&gt;&lt;/font&gt;" style="rounded=0;whiteSpace=wrap;html=1;" vertex="1" parent="1">
          <mxGeometry x="40" y="80" width="146" height="440" as="geometry" />
        </mxCell>
        <mxCell id="y9sA7hNgCmnhZNfGoA-k-3" value="LOGO" style="rounded=0;whiteSpace=wrap;html=1;" vertex="1" parent="1">
          <mxGeometry x="40" y="80" width="146" height="60" as="geometry" />
        </mxCell>
        <mxCell id="y9sA7hNgCmnhZNfGoA-k-4" value="" style="rounded=0;whiteSpace=wrap;html=1;" vertex="1" parent="1">
          <mxGeometry x="40" y="560" width="1320" height="440" as="geometry" />
        </mxCell>
        <mxCell id="y9sA7hNgCmnhZNfGoA-k-5" value="&lt;font style=&quot;font-size: 13px;&quot;&gt;领域模型&lt;br&gt;&lt;br&gt;&lt;font color=&quot;#3333ff&quot;&gt;接口管理&lt;/font&gt;&lt;br&gt;&lt;br&gt;角色管理&lt;br&gt;&lt;br&gt;用户管理&lt;br&gt;&lt;br&gt;&lt;/font&gt;" style="rounded=0;whiteSpace=wrap;html=1;" vertex="1" parent="1">
          <mxGeometry x="40" y="560" width="146" height="440" as="geometry" />
        </mxCell>
        <mxCell id="y9sA7hNgCmnhZNfGoA-k-6" value="LOGO" style="rounded=0;whiteSpace=wrap;html=1;" vertex="1" parent="1">
          <mxGeometry x="40" y="560" width="146" height="60" as="geometry" />
        </mxCell>
        <mxCell id="y9sA7hNgCmnhZNfGoA-k-7" value="仓库 / 订单 / 商品 / 用户" style="swimlane;startSize=20;horizontal=1;childLayout=treeLayout;horizontalTree=0;resizable=0;containerType=tree;fontSize=12;fontColor=#000000;" vertex="1" parent="1">
          <mxGeometry x="200" y="120" width="840" height="280" as="geometry" />
        </mxCell>
        <mxCell id="y9sA7hNgCmnhZNfGoA-k-8" value="仓库域" style="whiteSpace=wrap;html=1;" vertex="1" parent="y9sA7hNgCmnhZNfGoA-k-7">
          <mxGeometry x="440" y="40" width="100" height="40" as="geometry" />
        </mxCell>
        <mxCell id="y9sA7hNgCmnhZNfGoA-k-9" value="入库聚合模型" style="whiteSpace=wrap;html=1;" vertex="1" parent="y9sA7hNgCmnhZNfGoA-k-7">
          <mxGeometry x="230" y="130" width="100" height="40" as="geometry" />
        </mxCell>
        <mxCell id="y9sA7hNgCmnhZNfGoA-k-10" value="" style="edgeStyle=elbowEdgeStyle;elbow=vertical;html=1;rounded=1;curved=0;sourcePerimeterSpacing=0;targetPerimeterSpacing=0;startSize=6;endSize=6;" edge="1" parent="y9sA7hNgCmnhZNfGoA-k-7" source="y9sA7hNgCmnhZNfGoA-k-8" target="y9sA7hNgCmnhZNfGoA-k-9">
          <mxGeometry relative="1" as="geometry" />
        </mxCell>
        <mxCell id="y9sA7hNgCmnhZNfGoA-k-11" value="" style="edgeStyle=elbowEdgeStyle;elbow=vertical;html=1;rounded=1;curved=0;sourcePerimeterSpacing=0;targetPerimeterSpacing=0;startSize=6;endSize=6;" edge="1" parent="y9sA7hNgCmnhZNfGoA-k-7" source="y9sA7hNgCmnhZNfGoA-k-9" target="y9sA7hNgCmnhZNfGoA-k-12">
          <mxGeometry relative="1" as="geometry">
            <mxPoint x="-1000" y="700" as="sourcePoint" />
          </mxGeometry>
        </mxCell>
        <mxCell id="y9sA7hNgCmnhZNfGoA-k-12" value="入库表头" style="whiteSpace=wrap;html=1;" vertex="1" parent="y9sA7hNgCmnhZNfGoA-k-7">
          <mxGeometry x="20" y="220" width="100" height="40" as="geometry" />
        </mxCell>
        <mxCell id="y9sA7hNgCmnhZNfGoA-k-13" value="" style="edgeStyle=elbowEdgeStyle;elbow=vertical;html=1;rounded=1;curved=0;sourcePerimeterSpacing=0;targetPerimeterSpacing=0;startSize=6;endSize=6;" edge="1" parent="y9sA7hNgCmnhZNfGoA-k-7" source="y9sA7hNgCmnhZNfGoA-k-8" target="y9sA7hNgCmnhZNfGoA-k-14">
          <mxGeometry relative="1" as="geometry">
            <mxPoint x="-1000" y="700" as="sourcePoint" />
          </mxGeometry>
        </mxCell>
        <mxCell id="y9sA7hNgCmnhZNfGoA-k-14" value="仓库聚合模型" style="whiteSpace=wrap;html=1;" vertex="1" parent="y9sA7hNgCmnhZNfGoA-k-7">
          <mxGeometry x="650" y="130" width="100" height="40" as="geometry" />
        </mxCell>
        <mxCell id="y9sA7hNgCmnhZNfGoA-k-15" value="" style="edgeStyle=elbowEdgeStyle;elbow=vertical;html=1;rounded=1;curved=0;sourcePerimeterSpacing=0;targetPerimeterSpacing=0;startSize=6;endSize=6;" edge="1" parent="y9sA7hNgCmnhZNfGoA-k-7" source="y9sA7hNgCmnhZNfGoA-k-9" target="y9sA7hNgCmnhZNfGoA-k-16">
          <mxGeometry relative="1" as="geometry">
            <mxPoint x="-1056" y="310" as="sourcePoint" />
          </mxGeometry>
        </mxCell>
        <mxCell id="y9sA7hNgCmnhZNfGoA-k-16" value="货主模型" style="whiteSpace=wrap;html=1;" vertex="1" parent="y9sA7hNgCmnhZNfGoA-k-7">
          <mxGeometry x="160" y="220" width="100" height="40" as="geometry" />
        </mxCell>
        <mxCell id="y9sA7hNgCmnhZNfGoA-k-17" value="" style="edgeStyle=elbowEdgeStyle;elbow=vertical;html=1;rounded=1;curved=0;sourcePerimeterSpacing=0;targetPerimeterSpacing=0;startSize=6;endSize=6;" edge="1" parent="y9sA7hNgCmnhZNfGoA-k-7" source="y9sA7hNgCmnhZNfGoA-k-14" target="y9sA7hNgCmnhZNfGoA-k-18">
          <mxGeometry relative="1" as="geometry">
            <mxPoint x="-671" y="220" as="sourcePoint" />
          </mxGeometry>
        </mxCell>
        <mxCell id="y9sA7hNgCmnhZNfGoA-k-18" value="仓库库存" style="whiteSpace=wrap;html=1;" vertex="1" parent="y9sA7hNgCmnhZNfGoA-k-7">
          <mxGeometry x="580" y="220" width="100" height="40" as="geometry" />
        </mxCell>
        <mxCell id="y9sA7hNgCmnhZNfGoA-k-19" value="" style="edgeStyle=elbowEdgeStyle;elbow=vertical;html=1;rounded=1;curved=0;sourcePerimeterSpacing=0;targetPerimeterSpacing=0;startSize=6;endSize=6;" edge="1" parent="y9sA7hNgCmnhZNfGoA-k-7" source="y9sA7hNgCmnhZNfGoA-k-14" target="y9sA7hNgCmnhZNfGoA-k-20">
          <mxGeometry relative="1" as="geometry">
            <mxPoint x="-496" y="310" as="sourcePoint" />
          </mxGeometry>
        </mxCell>
        <mxCell id="y9sA7hNgCmnhZNfGoA-k-20" value="库位明细" style="whiteSpace=wrap;html=1;" vertex="1" parent="y9sA7hNgCmnhZNfGoA-k-7">
          <mxGeometry x="720" y="220" width="100" height="40" as="geometry" />
        </mxCell>
        <mxCell id="y9sA7hNgCmnhZNfGoA-k-21" value="" style="edgeStyle=elbowEdgeStyle;elbow=vertical;html=1;rounded=1;curved=0;sourcePerimeterSpacing=0;targetPerimeterSpacing=0;startSize=6;endSize=6;" edge="1" parent="y9sA7hNgCmnhZNfGoA-k-7" source="y9sA7hNgCmnhZNfGoA-k-9" target="y9sA7hNgCmnhZNfGoA-k-22">
          <mxGeometry relative="1" as="geometry">
            <mxPoint x="-185" y="290" as="sourcePoint" />
          </mxGeometry>
        </mxCell>
        <mxCell id="y9sA7hNgCmnhZNfGoA-k-22" value="仓库模型" style="whiteSpace=wrap;html=1;" vertex="1" parent="y9sA7hNgCmnhZNfGoA-k-7">
          <mxGeometry x="300" y="220" width="100" height="40" as="geometry" />
        </mxCell>
        <mxCell id="y9sA7hNgCmnhZNfGoA-k-23" value="" style="edgeStyle=elbowEdgeStyle;elbow=vertical;html=1;rounded=1;curved=0;sourcePerimeterSpacing=0;targetPerimeterSpacing=0;startSize=6;endSize=6;" edge="1" parent="y9sA7hNgCmnhZNfGoA-k-7" source="y9sA7hNgCmnhZNfGoA-k-9" target="y9sA7hNgCmnhZNfGoA-k-24">
          <mxGeometry relative="1" as="geometry">
            <mxPoint x="95" y="290" as="sourcePoint" />
          </mxGeometry>
        </mxCell>
        <mxCell id="y9sA7hNgCmnhZNfGoA-k-24" value="货主模型" style="whiteSpace=wrap;html=1;" vertex="1" parent="y9sA7hNgCmnhZNfGoA-k-7">
          <mxGeometry x="440" y="220" width="100" height="40" as="geometry" />
        </mxCell>
        <mxCell id="y9sA7hNgCmnhZNfGoA-k-25" value="Container" style="swimlane;" vertex="1" parent="1">
          <mxGeometry x="1050" y="120" width="291" height="370" as="geometry" />
        </mxCell>
      </root>
    </mxGraphModel>
  </diagram>
</mxfile>
